<svg xmlns="http://www.w3.org/2000/svg" viewBox="0 0 512 512">
  <defs>
    <linearGradient id="grad" x1="0%" y1="0%" x2="100%" y2="100%">
      <stop offset="0%" style="stop-color:#8b5cf6"/>
      <stop offset="100%" style="stop-color:#06b6d4"/>
    </linearGradient>
  </defs>
  <rect width="512" height="512" rx="96" fill="#050505"/>
  <path d="M128 160h80c44.2 0 80 35.8 80 80v0c0 44.2-35.8 80-80 80h-32v32c0 8.8-7.2 16-16 16h-32c-8.8 0-16-7.2-16-16V176c0-8.8 7.2-16 16-16zm80 112c17.7 0 32-14.3 32-32s-14.3-32-32-32h-32v64h32z" fill="url(#grad)"/>
  <path d="M320 160h32c8.8 0 16 7.2 16 16v80h48c8.8 0 16 7.2 16 16v16c0 8.8-7.2 16-16 16h-48v48c0 8.8-7.2 16-16 16h-32c-8.8 0-16-7.2-16-16V176c0-8.8 7.2-16 16-16z" fill="url(#grad)"/>
</svg>
